<svg xmlns="http://www.w3.org/2000/svg" xmlns:xlink="http://www.w3.org/1999/xlink" style="margin:auto;background:#ffffff;display:block;z-index:1;position:relative" width="1536" height="714" preserveAspectRatio="xMidYMid" viewBox="0 0 1536 714">
<g transform="translate(768,357) scale(1,1) translate(-768,-357)"><path id="path0" d="M 1464.4668323791386 482.80499712739646
c 0 36.97147266529215 -9.0462113968268 10.61946555279668 -19.66567694962348 10.61946555279668
S 1425.1354784798916 519.7764697926887 1425.1354784798916 482.80499712739646
s 9.0462113968268 -10.61946555279668 19.66567694962348 -10.61946555279668
S 1464.4668323791386 445.8335244621043 1464.4668323791386 482.80499712739646
z" fill="none" stroke="none"></path>
<circle cx="0" cy="0" r="6.743599546369985" fill="#9df871" opacity="0.9">
  <animateMotion begin="-9.06383359916937s" dur="10s" repeatCount="indefinite">
    <mpath xlink:href="#path0"></mpath>
  </animateMotion>
</circle><path id="path1" d="M 120.06234386616319 553.7205137207125
c 0 18.873407676431807 -4.617961452743953 5.421085183655945 -10.039046636399897 5.421085183655945
S 99.98425059336338 572.5939213971443 99.98425059336338 553.7205137207125
s 4.617961452743953 -5.421085183655945 10.039046636399897 -5.421085183655945
S 120.06234386616319 534.8471060442806 120.06234386616319 553.7205137207125
z" fill="none" stroke="none"></path>
<circle cx="0" cy="0" r="4.193521313309544" fill="#de9dd6" opacity="0.9">
  <animateMotion begin="-1.7530035693771717s" dur="10s" repeatCount="indefinite">
    <mpath xlink:href="#path1"></mpath>
  </animateMotion>
</circle><path id="path2" d="M 161.07758648018125 685.3715469629815
c 0 30.842065564935936 -7.546462850994962 8.85889117290713 -16.405354023902092 8.85889117290713
S 128.2668784323771 716.2136125279175 128.2668784323771 685.3715469629815
s 7.546462850994962 -8.85889117290713 16.405354023902092 -8.85889117290713
S 161.07758648018125 654.5294813980455 161.07758648018125 685.3715469629815
z" fill="none" stroke="none"></path>
<circle cx="0" cy="0" r="5.581594453265286" fill="#e0ff77" opacity="0.9">
  <animateMotion begin="-2.8363176080053787s" dur="10s" repeatCount="indefinite">
    <mpath xlink:href="#path2"></mpath>
  </animateMotion>
</circle><path id="path3" d="M 1236.584641470035 488.33207040089997
c 0 28.91108106617917 -7.073987920448094 8.304246689221678 -15.378234609669772 8.304246689221678
S 1205.8281722506954 517.2431514670791 1205.8281722506954 488.33207040089997
s 7.073987920448094 -8.304246689221678 15.378234609669772 -8.304246689221678
S 1236.584641470035 459.4209893347208 1236.584641470035 488.33207040089997
z" fill="none" stroke="none"></path>
<circle cx="0" cy="0" r="7.270248411796458" fill="#e0ff77" opacity="0.9">
  <animateMotion begin="-7.973231898173854s" dur="10s" repeatCount="indefinite">
    <mpath xlink:href="#path3"></mpath>
  </animateMotion>
</circle><path id="path4" d="M 163.64186736444566 123.53523552857303
c 0 23.224075170075032 -5.682486477784316 6.670744995659851 -12.353231473444167 6.670744995659851
S 138.93540441755732 146.75931069864805 138.93540441755732 123.53523552857303
s 5.682486477784316 -6.670744995659851 12.353231473444167 -6.670744995659851
S 163.64186736444566 100.311160358498 163.64186736444566 123.53523552857303
z" fill="none" stroke="none"></path>
<circle cx="0" cy="0" r="7.959561881812919" fill="#ff708e" opacity="0.9">
  <animateMotion begin="-4.422705487696909s" dur="10s" repeatCount="indefinite">
    <mpath xlink:href="#path4"></mpath>
  </animateMotion>
</circle><path id="path5" d="M 735.4977869511652 231.44145196580868
c 0 32.339940162277195 -7.912964082259313 9.289131748739194 -17.20209583099851 9.289131748739194
S 701.0935952891682 263.7813921280859 701.0935952891682 231.44145196580868
s 7.912964082259313 -9.289131748739194 17.20209583099851 -9.289131748739194
S 735.4977869511652 199.10151180353148 735.4977869511652 231.44145196580868
z" fill="none" stroke="none"></path>
<circle cx="0" cy="0" r="5.277065996844237" fill="#51cacc" opacity="0.9">
  <animateMotion begin="-5.0519247571841275s" dur="10s" repeatCount="indefinite">
    <mpath xlink:href="#path5"></mpath>
  </animateMotion>
</circle><path id="path6" d="M 1385.724489542579 692.6416820722281
c 0 31.36948796406785 -7.675513012484687 9.010384840742894 -16.68589785322758 9.010384840742894
S 1352.352693836124 724.011170036296 1352.352693836124 692.6416820722281
s 7.675513012484687 -9.010384840742894 16.68589785322758 -9.010384840742894
S 1385.724489542579 661.2721941081603 1385.724489542579 692.6416820722281
z" fill="none" stroke="none"></path>
<circle cx="0" cy="0" r="4.884745283661211" fill="#51cacc" opacity="0.9">
  <animateMotion begin="-2.3823703927261564s" dur="10s" repeatCount="indefinite">
    <mpath xlink:href="#path6"></mpath>
  </animateMotion>
</circle><path id="path7" d="M 81.21925307914478 580.650066993777
c 0 27.29365814251186 -6.678235502955029 7.839667764338513 -14.51790326729354 7.839667764338513
S 52.18344654455769 607.9437251362889 52.18344654455769 580.650066993777
s 6.678235502955029 -7.839667764338513 14.51790326729354 -7.839667764338513
S 81.21925307914478 553.3564088512652 81.21925307914478 580.650066993777
z" fill="none" stroke="none"></path>
<circle cx="0" cy="0" r="7.2947504242416" fill="#e0ff77" opacity="0.9">
  <animateMotion begin="-0.87639547094023s" dur="10s" repeatCount="indefinite">
    <mpath xlink:href="#path7"></mpath>
  </animateMotion>
</circle><path id="path8" d="M 378.4782784159933 256.7392103087143
c 0 35.69621867364221 -8.734181164827346 10.253169193492974 -18.98735035832032 10.253169193492974
S 340.50357769935266 292.4354289823565 340.50357769935266 256.7392103087143
s 8.734181164827346 -10.253169193492974 18.98735035832032 -10.253169193492974
S 378.4782784159933 221.0429916350721 378.4782784159933 256.7392103087143
z" fill="none" stroke="none"></path>
<circle cx="0" cy="0" r="4.578930738581009" fill="#ff708e" opacity="0.9">
  <animateMotion begin="-9.030612144765744s" dur="10s" repeatCount="indefinite">
    <mpath xlink:href="#path8"></mpath>
  </animateMotion>
</circle><path id="path9" d="M 30.600316316930805 194.11848940135843
c 0 32.32791659977365 -7.910022146753127 9.28567817227541 -17.19570031902854 9.28567817227541
S -3.7910843211262737 226.4464060011321 -3.7910843211262737 194.11848940135843
s 7.910022146753127 -9.28567817227541 17.19570031902854 -9.28567817227541
S 30.600316316930805 161.79057280158477 30.600316316930805 194.11848940135843
z" fill="none" stroke="none"></path>
<circle cx="0" cy="0" r="5.633629990676999" fill="#ff708e" opacity="0.9">
  <animateMotion begin="-6.010589433008143s" dur="10s" repeatCount="indefinite">
    <mpath xlink:href="#path9"></mpath>
  </animateMotion>
</circle><path id="path10" d="M 758.0451960060504 99.79468811736886
c 0 26.93409187277542 -6.59025652206207 7.7363880911163445 -14.326644613178415 7.7363880911163445
S 729.3919067796937 126.72877999014429 729.3919067796937 99.79468811736886
s 6.59025652206207 -7.7363880911163445 14.326644613178415 -7.7363880911163445
S 758.0451960060504 72.86059624459344 758.0451960060504 99.79468811736886
z" fill="none" stroke="none"></path>
<circle cx="0" cy="0" r="4.090849133359294" fill="#9df871" opacity="0.9">
  <animateMotion begin="-6.3052582377402455s" dur="10s" repeatCount="indefinite">
    <mpath xlink:href="#path10"></mpath>
  </animateMotion>
</circle><path id="path11" d="M 741.6515590175874 99.61466445382143
c 0 36.153138824868435 -8.845980776297594 10.3844122156537 -19.230392991951295 10.3844122156537
S 703.1907730336849 135.76780327868988 703.1907730336849 99.61466445382143
s 8.845980776297594 -10.3844122156537 19.230392991951295 -10.3844122156537
S 741.6515590175874 63.461525628953 741.6515590175874 99.61466445382143
z" fill="none" stroke="none"></path>
<circle cx="0" cy="0" r="7.515090373092172" fill="#de9dd6" opacity="0.9">
  <animateMotion begin="-6.068206740164177s" dur="10s" repeatCount="indefinite">
    <mpath xlink:href="#path11"></mpath>
  </animateMotion>
</circle><path id="path12" d="M 463.76473005779656 513.8904317025168
c 0 32.260945963793745 -7.893635714545277 9.266441925770543 -17.16007764031582 9.266441925770543
S 429.4445747771649 546.1513776663105 429.4445747771649 513.8904317025168
s 7.893635714545277 -9.266441925770543 17.16007764031582 -9.266441925770543
S 463.76473005779656 481.6294857387231 463.76473005779656 513.8904317025168
z" fill="none" stroke="none"></path>
<circle cx="0" cy="0" r="5.968198895148668" fill="#9df871" opacity="0.9">
  <animateMotion begin="-9.445981992897224s" dur="10s" repeatCount="indefinite">
    <mpath xlink:href="#path12"></mpath>
  </animateMotion>
</circle><path id="path13" d="M 224.61479954319296 513.8349874598198
c 0 20.8818394268022 -5.109386242728197 5.997975154507015 -11.107361397235211 5.997975154507015
S 202.4000767487225 534.716826886622 202.4000767487225 513.8349874598198
s 5.109386242728197 -5.997975154507015 11.107361397235211 -5.997975154507015
S 224.61479954319296 492.9531480330176 224.61479954319296 513.8349874598198
z" fill="none" stroke="none"></path>
<circle cx="0" cy="0" r="7.232411999426709" fill="#ff708e" opacity="0.9">
  <animateMotion begin="-8.761238435259823s" dur="10s" repeatCount="indefinite">
    <mpath xlink:href="#path13"></mpath>
  </animateMotion>
</circle><path id="path14" d="M 1296.0557185624752 292.53523489656465
c 0 31.056628554628933 -7.598962305919844 8.920520967818948 -16.519483273738793 8.920520967818948
S 1263.0167520149976 323.5918634511936 1263.0167520149976 292.53523489656465
s 7.598962305919844 -8.920520967818948 16.519483273738793 -8.920520967818948
S 1296.0557185624752 261.4786063419357 1296.0557185624752 292.53523489656465
z" fill="none" stroke="none"></path>
<circle cx="0" cy="0" r="7.616244834773735" fill="#ff708e" opacity="0.9">
  <animateMotion begin="-7.255884444996905s" dur="10s" repeatCount="indefinite">
    <mpath xlink:href="#path14"></mpath>
  </animateMotion>
</circle><path id="path15" d="M 402.41687653403676 285.98718668926
c 0 21.653033255024337 -5.2980826049527625 6.219488275379331 -11.517570880332093 6.219488275379331
S 379.3817347733726 307.64021994428435 379.3817347733726 285.98718668926
s 5.2980826049527625 -6.219488275379331 11.517570880332093 -6.219488275379331
S 402.41687653403676 264.33415343423565 402.41687653403676 285.98718668926
z" fill="none" stroke="none"></path>
<circle cx="0" cy="0" r="5.478853261141616" fill="#51cacc" opacity="0.9">
  <animateMotion begin="-7.0185525213720705s" dur="10s" repeatCount="indefinite">
    <mpath xlink:href="#path15"></mpath>
  </animateMotion>
</circle><path id="path16" d="M 540.0217823419889 326.78926798839956
c 0 33.71943058941026 -8.250498974004637 9.685368360788054 -17.93586733479269 9.685368360788054
S 504.15004767240356 360.5086985778098 504.15004767240356 326.78926798839956
s 8.250498974004637 -9.685368360788054 17.93586733479269 -9.685368360788054
S 540.0217823419889 293.0698373989893 540.0217823419889 326.78926798839956
z" fill="none" stroke="none"></path>
<circle cx="0" cy="0" r="7.907382459808736" fill="#9df871" opacity="0.9">
  <animateMotion begin="-5.006323205935443s" dur="10s" repeatCount="indefinite">
    <mpath xlink:href="#path16"></mpath>
  </animateMotion>
</circle><path id="path17" d="M 37.27657682039124 159.4018323565725
c 0 36.07252103472857 -8.826255146795287 10.36125604189012 -19.18751118868541 10.36125604189012
S -1.0984455569795806 195.47435339130107 -1.0984455569795806 159.4018323565725
s 8.826255146795287 -10.36125604189012 19.18751118868541 -10.36125604189012
S 37.27657682039124 123.32931132184393 37.27657682039124 159.4018323565725
z" fill="none" stroke="none"></path>
<circle cx="0" cy="0" r="6.0765981704840994" fill="#ff708e" opacity="0.9">
  <animateMotion begin="-7.733383104514564s" dur="10s" repeatCount="indefinite">
    <mpath xlink:href="#path17"></mpath>
  </animateMotion>
</circle><path id="path18" d="M 792.0749285265183 630.0723858351295
c 0 24.66920904014221 -6.0360830630135185 7.085836639189783 -13.121919702203302 7.085836639189783
S 765.8310891221117 654.7415948752716 765.8310891221117 630.0723858351295
s 6.0360830630135185 -7.085836639189783 13.121919702203302 -7.085836639189783
S 792.0749285265183 605.4031767949873 792.0749285265183 630.0723858351295
z" fill="none" stroke="none"></path>
<circle cx="0" cy="0" r="6.099628328834631" fill="#ff708e" opacity="0.9">
  <animateMotion begin="-7.462171154384314s" dur="10s" repeatCount="indefinite">
    <mpath xlink:href="#path18"></mpath>
  </animateMotion>
</circle><path id="path19" d="M 1385.9582798644358 386.51455836376493
c 0 28.879299462231476 -7.066211570545999 8.295117930640956 -15.361329501186955 8.295117930640956
S 1355.235620862062 415.3938578259964 1355.235620862062 386.51455836376493
s 7.066211570545999 -8.295117930640956 15.361329501186955 -8.295117930640956
S 1385.9582798644358 357.63525890153346 1385.9582798644358 386.51455836376493
z" fill="none" stroke="none"></path>
<circle cx="0" cy="0" r="5.291513865271625" fill="#de9dd6" opacity="0.9">
  <animateMotion begin="-0.06576350981438273s" dur="10s" repeatCount="indefinite">
    <mpath xlink:href="#path19"></mpath>
  </animateMotion>
</circle><path id="path20" d="M 1294.82759211823 612.2925569988864
c 0 36.85526596505171 -9.01777784251265 10.586087032514852 -19.603864875027504 10.586087032514852
S 1255.619862368175 649.1478229639381 1255.619862368175 612.2925569988864
s 9.01777784251265 -10.586087032514852 19.603864875027504 -10.586087032514852
S 1294.82759211823 575.4372910338348 1294.82759211823 612.2925569988864
z" fill="none" stroke="none"></path>
<circle cx="0" cy="0" r="4.815450702024835" fill="#9df871" opacity="0.9">
  <animateMotion begin="-4.328910592213953s" dur="10s" repeatCount="indefinite">
    <mpath xlink:href="#path20"></mpath>
  </animateMotion>
</circle><path id="path21" d="M 973.2913576790821 652.412126053439
c 0 23.539526526234354 -5.759671384078618 6.761353363918379 -12.521024747996996 6.761353363918379
S 948.2493081830881 675.9516525796734 948.2493081830881 652.412126053439
s 5.759671384078618 -6.761353363918379 12.521024747996996 -6.761353363918379
S 973.2913576790821 628.8725995272047 973.2913576790821 652.412126053439
z" fill="none" stroke="none"></path>
<circle cx="0" cy="0" r="4.7323911295015035" fill="#ff708e" opacity="0.9">
  <animateMotion begin="-2.6740980867233755s" dur="10s" repeatCount="indefinite">
    <mpath xlink:href="#path21"></mpath>
  </animateMotion>
</circle><path id="path22" d="M 358.025252600176 446.75253753952035
c 0 35.88262477614502 -8.779791168631228 10.306711371871442 -19.08650254050267 10.306711371871442
S 319.8522475191706 482.63516231566535 319.8522475191706 446.75253753952035
s 8.779791168631228 -10.306711371871442 19.08650254050267 -10.306711371871442
S 358.025252600176 410.86991276337534 358.025252600176 446.75253753952035
z" fill="none" stroke="none"></path>
<circle cx="0" cy="0" r="5.164565013230058" fill="#ff708e" opacity="0.9">
  <animateMotion begin="-8.553278755006717s" dur="10s" repeatCount="indefinite">
    <mpath xlink:href="#path22"></mpath>
  </animateMotion>
</circle><path id="path23" d="M 343.6076874676579 365.65227040331564
c 0 23.03955699154824 -5.637338412825632 6.617745093317047 -12.255083506142679 6.617745093317047
S 319.09752045537255 388.6918273948639 319.09752045537255 365.65227040331564
s 5.637338412825632 -6.617745093317047 12.255083506142679 -6.617745093317047
S 343.6076874676579 342.6127134117674 343.6076874676579 365.65227040331564
z" fill="none" stroke="none"></path>
<circle cx="0" cy="0" r="6.1057794510942305" fill="#ff708e" opacity="0.9">
  <animateMotion begin="-7.613393624286349s" dur="10s" repeatCount="indefinite">
    <mpath xlink:href="#path23"></mpath>
  </animateMotion>
</circle><path id="path24" d="M 942.5102568374205 393.17466737668303
c 0 22.733479236130393 -5.562447047138287 6.529829142292773 -12.09227618943106 6.529829142292773
S 918.3257044585584 415.9081466128134 918.3257044585584 393.17466737668303
s 5.562447047138287 -6.529829142292773 12.09227618943106 -6.529829142292773
S 942.5102568374205 370.44118814055264 942.5102568374205 393.17466737668303
z" fill="none" stroke="none"></path>
<circle cx="0" cy="0" r="6.8249913775765405" fill="#51cacc" opacity="0.9">
  <animateMotion begin="-3.7713950452382927s" dur="10s" repeatCount="indefinite">
    <mpath xlink:href="#path24"></mpath>
  </animateMotion>
</circle><path id="path25" d="M 837.3650503628176 391.69278260001784
c 0 36.286390434318264 -8.878584893503405 10.422686614112694 -19.301271507616097 10.422686614112694
S 798.7625073475854 427.9791730343361 798.7625073475854 391.69278260001784
s 8.878584893503405 -10.422686614112694 19.301271507616097 -10.422686614112694
S 837.3650503628176 355.4063921656996 837.3650503628176 391.69278260001784
z" fill="none" stroke="none"></path>
<circle cx="0" cy="0" r="4.650191879738725" fill="#de9dd6" opacity="0.9">
  <animateMotion begin="-4.72835241796544s" dur="10s" repeatCount="indefinite">
    <mpath xlink:href="#path25"></mpath>
  </animateMotion>
</circle><path id="path26" d="M 394.8937485372222 408.1420376234612
c 0 31.8061825372866 -7.782363812314805 9.135818388369556 -16.91818220068436 9.135818388369556
S 361.05738413585345 439.9482201607478 361.05738413585345 408.1420376234612
s 7.782363812314805 -9.135818388369556 16.91818220068436 -9.135818388369556
S 394.8937485372222 376.3358550861746 394.8937485372222 408.1420376234612
z" fill="none" stroke="none"></path>
<circle cx="0" cy="0" r="7.460423310623021" fill="#de9dd6" opacity="0.9">
  <animateMotion begin="-7.570604594348427s" dur="10s" repeatCount="indefinite">
    <mpath xlink:href="#path26"></mpath>
  </animateMotion>
</circle><path id="path27" d="M 1199.0002260007286 514.4015702824875
c 0 31.503318584527523 -7.708258802597159 9.048825550874927 -16.757084353472088 9.048825550874927
S 1165.4860572937846 545.904888867015 1165.4860572937846 514.4015702824875
s 7.708258802597159 -9.048825550874927 16.757084353472088 -9.048825550874927
S 1199.0002260007286 482.89825169795995 1199.0002260007286 514.4015702824875
z" fill="none" stroke="none"></path>
<circle cx="0" cy="0" r="7.36838283507218" fill="#e0ff77" opacity="0.9">
  <animateMotion begin="-9.240022379111146s" dur="10s" repeatCount="indefinite">
    <mpath xlink:href="#path27"></mpath>
  </animateMotion>
</circle><path id="path28" d="M 670.9636767495685 216.9026111263473
c 0 21.310293187714027 -5.214220673589602 6.121041660300837 -11.335262333890439 6.121041660300837
S 648.2931520817876 238.21290431406132 648.2931520817876 216.9026111263473
s 5.214220673589602 -6.121041660300837 11.335262333890439 -6.121041660300837
S 670.9636767495685 195.59231793863327 670.9636767495685 216.9026111263473
z" fill="none" stroke="none"></path>
<circle cx="0" cy="0" r="6.817854626844378" fill="#de9dd6" opacity="0.9">
  <animateMotion begin="-8.719819775835635s" dur="10s" repeatCount="indefinite">
    <mpath xlink:href="#path28"></mpath>
  </animateMotion>
</circle><path id="path29" d="M 917.7450817830113 696.8399840314536
c 0 27.576563912153347 -6.747457127441775 7.920927932214259 -14.668385059656035 7.920927932214259
S 888.4083116636991 724.4165479436069 888.4083116636991 696.8399840314536
s 6.747457127441775 -7.920927932214259 14.668385059656035 -7.920927932214259
S 917.7450817830113 669.2634201193002 917.7450817830113 696.8399840314536
z" fill="none" stroke="none"></path>
<circle cx="0" cy="0" r="5.786005779632006" fill="#9df871" opacity="0.9">
  <animateMotion begin="-0.6875187015313444s" dur="10s" repeatCount="indefinite">
    <mpath xlink:href="#path29"></mpath>
  </animateMotion>
</circle></g>
</svg>